<mxfile host="Electron" agent="Mozilla/5.0 (X11; Linux x86_64) AppleWebKit/537.36 (KHTML, like Gecko) draw.io/28.0.6 Chrome/138.0.7204.100 Electron/37.2.3 Safari/537.36" version="28.0.6">
  <diagram name="Page-1" id="XWgwnau1Fyg4vZ-Wu4xl">
    <mxGraphModel dx="2066" dy="1141" grid="1" gridSize="10" guides="1" tooltips="1" connect="1" arrows="1" fold="1" page="1" pageScale="1" pageWidth="850" pageHeight="1100" math="0" shadow="0">
      <root>
        <UserObject label="" customAnimation="wait 1500&#xa;animate oOEmTRZT46LAJ4dAqzuW-1&#xa;wait 1500&#xa;roll oOEmTRZT46LAJ4dAqzuW-5&#xa;wait 1500&#xa;animate oOEmTRZT46LAJ4dAqzuW-2&#xa;wait 1500&#xa;roll oOEmTRZT46LAJ4dAqzuW-6&#xa;wait 1500&#xa;animate oOEmTRZT46LAJ4dAqzuW-3&#xa;wait 1500&#xa;roll oOEmTRZT46LAJ4dAqzuW-7&#xa;wait 1500&#xa;animate oOEmTRZT46LAJ4dAqzuW-4&#xa;wait 1500&#xa;&#xa;hide oOEmTRZT46LAJ4dAqzuW-1&#xa;wait 1500&#xa;hide oOEmTRZT46LAJ4dAqzuW-2&#xa;wait 1500&#xa;hide oOEmTRZT46LAJ4dAqzuW-3&#xa;wait 1500&#xa;hide oOEmTRZT46LAJ4dAqzuW-4&#xa;wait 1500&#xa;hide oOEmTRZT46LAJ4dAqzuW-5&#xa;wait 1500&#xa;hide oOEmTRZT46LAJ4dAqzuW-6&#xa;wait 1500&#xa;hide oOEmTRZT46LAJ4dAqzuW-7&#xa;&#xa;" animation="show oOEmTRZT46LAJ4dAqzuW-1 fade&#xa;wait 1500&#xa;show oOEmTRZT46LAJ4dAqzuW-5&#xa;wait 1500&#xa;show oOEmTRZT46LAJ4dAqzuW-2 fade&#xa;wait 1500&#xa;show oOEmTRZT46LAJ4dAqzuW-6&#xa;wait 1500&#xa;show oOEmTRZT46LAJ4dAqzuW-3 fade&#xa;wait 1500&#xa;show oOEmTRZT46LAJ4dAqzuW-7&#xa;wait 1500&#xa;show oOEmTRZT46LAJ4dAqzuW-4 fade&#xa;" id="0">
          <mxCell />
        </UserObject>
        <mxCell id="1" parent="0" />
        <mxCell id="oOEmTRZT46LAJ4dAqzuW-1" value="Start" style="rounded=1;whiteSpace=wrap;arcSize=50;strokeWidth=2;" parent="1" vertex="1">
          <mxGeometry x="350" y="80" width="59" height="39" as="geometry" />
        </mxCell>
        <mxCell id="oOEmTRZT46LAJ4dAqzuW-2" value="x = 1" style="whiteSpace=wrap;strokeWidth=2;" parent="1" vertex="1">
          <mxGeometry x="310" y="169" width="139" height="54" as="geometry" />
        </mxCell>
        <mxCell id="oOEmTRZT46LAJ4dAqzuW-3" value="print(&quot;Hello world!&quot;)" style="whiteSpace=wrap;strokeWidth=2;" parent="1" vertex="1">
          <mxGeometry x="310" y="273" width="139" height="54" as="geometry" />
        </mxCell>
        <mxCell id="oOEmTRZT46LAJ4dAqzuW-4" value="End" style="rounded=1;whiteSpace=wrap;arcSize=50;strokeWidth=2;" parent="1" vertex="1">
          <mxGeometry x="353" y="377" width="53" height="39" as="geometry" />
        </mxCell>
        <mxCell id="oOEmTRZT46LAJ4dAqzuW-5" value="" style="curved=1;startArrow=none;endArrow=block;exitX=0.5;exitY=1;entryX=0.5;entryY=0;rounded=0;" parent="1" source="oOEmTRZT46LAJ4dAqzuW-1" target="oOEmTRZT46LAJ4dAqzuW-2" edge="1">
          <mxGeometry relative="1" as="geometry">
            <Array as="points" />
          </mxGeometry>
        </mxCell>
        <mxCell id="oOEmTRZT46LAJ4dAqzuW-6" value="" style="curved=1;startArrow=none;endArrow=block;exitX=0.5;exitY=1;entryX=0.5;entryY=0;rounded=0;" parent="1" source="oOEmTRZT46LAJ4dAqzuW-2" target="oOEmTRZT46LAJ4dAqzuW-3" edge="1">
          <mxGeometry relative="1" as="geometry">
            <Array as="points" />
          </mxGeometry>
        </mxCell>
        <mxCell id="oOEmTRZT46LAJ4dAqzuW-7" value="" style="curved=1;startArrow=none;endArrow=block;exitX=0.5;exitY=1;entryX=0.5;entryY=0;rounded=0;" parent="1" source="oOEmTRZT46LAJ4dAqzuW-3" target="oOEmTRZT46LAJ4dAqzuW-4" edge="1">
          <mxGeometry relative="1" as="geometry">
            <Array as="points" />
          </mxGeometry>
        </mxCell>
      </root>
    </mxGraphModel>
  </diagram>
</mxfile>
